<?xml version="1.0" standalone="no"?>
<!DOCTYPE svg PUBLIC "-//W3C//DTD SVG 20010904//EN"
 "http://www.w3.org/TR/2001/REC-SVG-20010904/DTD/svg10.dtd">
<svg version="1.0" xmlns="http://www.w3.org/2000/svg"
 width="64.000000pt" height="64.000000pt" viewBox="0 0 64.000000 64.000000"
 preserveAspectRatio="xMidYMid meet">

<g transform="translate(0.000000,64.000000) scale(0.100000,-0.100000)"
fill="#000000" stroke="none">
<path d="M216 594 c-3 -9 -6 -26 -6 -39 0 -22 -4 -24 -62 -27 -55 -3 -63 -5
-63 -23 0 -19 7 -20 235 -20 228 0 235 1 235 20 0 18 -8 20 -62 23 -59 3 -63
5 -63 27 0 52 -5 55 -110 55 -80 0 -99 -3 -104 -16z m154 -49 c0 -11 -12 -15
-50 -15 -38 0 -50 4 -50 15 0 11 12 15 50 15 38 0 50 -4 50 -15z"/>
<path d="M110 270 l0 -182 29 -29 29 -29 152 0 152 0 29 29 29 29 0 182 0 181
-22 -3 c-23 -3 -23 -5 -26 -167 -2 -136 -5 -168 -19 -183 -14 -16 -33 -18
-143 -18 -110 0 -129 2 -143 18 -14 15 -17 47 -19 183 -3 162 -3 164 -25 167
l-23 3 0 -181z"/>
<path d="M245 388 c-3 -8 -4 -61 -3 -119 3 -96 4 -104 23 -104 19 0 20 7 20
115 0 101 -2 115 -18 118 -9 2 -19 -3 -22 -10z"/>
<path d="M355 388 c-3 -8 -4 -61 -3 -119 3 -96 4 -104 23 -104 19 0 20 7 20
115 0 101 -2 115 -18 118 -9 2 -19 -3 -22 -10z"/>
</g>
</svg>
